<?xml version="1.0" encoding="UTF-8"?>
<svg xmlns="http://www.w3.org/2000/svg" xmlns:xlink="http://www.w3.org/1999/xlink" width="160pt" height="160pt" viewBox="0 0 160 160" version="1.1">
<g id="surface1">
<path style="fill:none;stroke-width:2.0801;stroke-linecap:butt;stroke-linejoin:miter;stroke:rgb(33.333333%,33.333333%,33.333333%);stroke-opacity:1;stroke-miterlimit:4;" d="M 48.151567 1027.400796 C 48.151567 1040.185574 37.786516 1050.550625 25.000001 1050.550625 C 12.213485 1050.550625 1.848435 1040.185574 1.848435 1027.400796 C 1.848435 1014.61428 12.213485 1004.24923 25.000001 1004.24923 C 37.786516 1004.24923 48.151567 1014.61428 48.151567 1027.400796 Z M 48.151567 1027.400796 " transform="matrix(2.248768,0,0,2.248768,23.7808,-2230.303955)"/>
<path style=" stroke:none;fill-rule:nonzero;fill:rgb(33.333333%,33.333333%,33.333333%);fill-opacity:1;" d="M 50.9375 54.667969 C 49.671875 54.667969 48.652344 55.691406 48.652344 56.957031 L 48.652344 94.179688 C 48.652344 95.445312 49.671875 96.46875 50.9375 96.46875 L 72.90625 96.46875 L 72.90625 103.496094 L 70.414062 103.496094 C 69.953125 103.496094 69.582031 103.867188 69.582031 104.328125 C 69.582031 104.789062 69.953125 105.160156 70.414062 105.160156 L 89.585938 105.160156 C 90.046875 105.160156 90.417969 104.789062 90.417969 104.328125 C 90.417969 103.867188 90.046875 103.496094 89.585938 103.496094 L 87.09375 103.496094 L 87.09375 96.46875 L 109.058594 96.46875 C 110.328125 96.46875 111.347656 95.445312 111.347656 94.179688 L 111.347656 56.957031 C 111.347656 55.691406 110.328125 54.667969 109.058594 54.667969 Z M 51.566406 57.5 L 108.433594 57.5 L 108.433594 93.394531 L 51.566406 93.394531 Z M 51.566406 57.5 "/>
<path style=" stroke:none;fill-rule:evenodd;fill:rgb(33.333333%,33.333333%,33.333333%);fill-opacity:1;" d="M 102.628906 65.238281 L 93.253906 75.503906 L 80.949219 73.226562 L 71.421875 82.605469 L 62.863281 79.089844 L 55.296875 88.078125 L 56.160156 88.796875 L 63.195312 80.441406 L 71.679688 83.925781 L 81.320312 74.441406 L 93.664062 76.722656 L 103.457031 66 Z M 102.628906 65.238281 "/>
<path style="fill-rule:evenodd;fill:rgb(33.333333%,33.333333%,33.333333%);fill-opacity:1;stroke-width:0.125;stroke-linecap:butt;stroke-linejoin:miter;stroke:rgb(33.333333%,33.333333%,33.333333%);stroke-opacity:1;stroke-miterlimit:4;" d="M 14.523778 1030.699477 C 14.733963 1030.878395 14.761756 1031.192803 14.582838 1031.404724 C 14.405658 1031.614909 14.089513 1031.642702 13.879328 1031.463785 C 13.667406 1031.286604 13.64135 1030.970459 13.818531 1030.760274 C 13.995711 1030.548353 14.311856 1030.522297 14.523778 1030.699477 Z M 14.523778 1030.699477 " transform="matrix(2.248768,0,0,2.248768,23.7808,-2230.303955)"/>
<path style="fill-rule:evenodd;fill:rgb(33.333333%,33.333333%,33.333333%);fill-opacity:1;stroke-width:0.125;stroke-linecap:butt;stroke-linejoin:miter;stroke:rgb(33.333333%,33.333333%,33.333333%);stroke-opacity:1;stroke-miterlimit:4;" d="M 17.930157 1027.100284 C 17.996166 1027.367792 17.831145 1027.638773 17.563637 1027.704782 C 17.296129 1027.77079 17.025148 1027.607506 16.959139 1027.338262 C 16.893131 1027.070754 17.056415 1026.799772 17.32566 1026.733764 C 17.593167 1026.667756 17.864149 1026.831039 17.930157 1027.100284 Z M 17.930157 1027.100284 " transform="matrix(2.248768,0,0,2.248768,23.7808,-2230.303955)"/>
<path style="fill-rule:evenodd;fill:rgb(33.333333%,33.333333%,33.333333%);fill-opacity:1;stroke-width:0.125;stroke-linecap:butt;stroke-linejoin:miter;stroke:rgb(33.333333%,33.333333%,33.333333%);stroke-opacity:1;stroke-miterlimit:4;" d="M 21.723901 1028.700118 C 21.77775 1028.9711 21.60057 1029.233397 21.329588 1029.287245 C 21.058606 1029.339357 20.79631 1029.163914 20.742461 1028.892932 C 20.690349 1028.621951 20.865792 1028.359654 21.136774 1028.305805 C 21.407756 1028.251956 21.670052 1028.429137 21.723901 1028.700118 Z M 21.723901 1028.700118 " transform="matrix(2.248768,0,0,2.248768,23.7808,-2230.303955)"/>
<path style="fill-rule:evenodd;fill:rgb(33.333333%,33.333333%,33.333333%);fill-opacity:1;stroke-width:0.125;stroke-linecap:butt;stroke-linejoin:miter;stroke:rgb(33.333333%,33.333333%,33.333333%);stroke-opacity:1;stroke-miterlimit:4;" d="M 25.974493 1024.499902 C 26.054398 1024.763935 25.906747 1025.043602 25.642714 1025.125244 C 25.37868 1025.205149 25.099013 1025.055762 25.017371 1024.793465 C 24.937466 1024.529432 25.085117 1024.249765 25.34915 1024.168123 C 25.613184 1024.086481 25.892851 1024.235868 25.974493 1024.499902 Z M 25.974493 1024.499902 " transform="matrix(2.248768,0,0,2.248768,23.7808,-2230.303955)"/>
<path style="fill-rule:evenodd;fill:rgb(33.333333%,33.333333%,33.333333%);fill-opacity:1;stroke-width:0.125;stroke-linecap:butt;stroke-linejoin:miter;stroke:rgb(33.333333%,33.333333%,33.333333%);stroke-opacity:1;stroke-miterlimit:4;" d="M 31.449713 1025.50045 C 31.538303 1025.761009 31.397601 1026.045887 31.135305 1026.13274 C 30.873008 1026.221331 30.589867 1026.080629 30.501277 1025.818332 C 30.414424 1025.556036 30.555126 1025.272895 30.817422 1025.184304 C 31.077982 1025.097451 31.36286 1025.238153 31.449713 1025.50045 Z M 31.449713 1025.50045 " transform="matrix(2.248768,0,0,2.248768,23.7808,-2230.303955)"/>
<path style="fill-rule:evenodd;fill:rgb(33.333333%,33.333333%,33.333333%);fill-opacity:1;stroke-width:0.125;stroke-linecap:butt;stroke-linejoin:miter;stroke:rgb(33.333333%,33.333333%,33.333333%);stroke-opacity:1;stroke-miterlimit:4;" d="M 35.57871 1020.600197 C 35.781946 1020.786063 35.795843 1021.102208 35.609977 1021.307181 C 35.424111 1021.510418 35.107966 1021.524314 34.902993 1021.338448 C 34.699757 1021.152583 34.68586 1020.836437 34.871726 1020.631464 C 35.057591 1020.428228 35.373737 1020.414331 35.57871 1020.600197 Z M 35.57871 1020.600197 " transform="matrix(2.248768,0,0,2.248768,23.7808,-2230.303955)"/>
</g>
</svg>
